<?xml version="1.0" encoding="UTF-8"?>
<svg width="160px" height="160px" viewBox="0 0 160 160" version="1.1" xmlns="http://www.w3.org/2000/svg" xmlns:xlink="http://www.w3.org/1999/xlink">
    <title>B buy license</title>
    <defs>
        <circle id="path-1" cx="50" cy="50" r="50"></circle>
        <filter x="-45.0%" y="-45.0%" width="190.0%" height="190.0%" filterUnits="objectBoundingBox" id="filter-2">
            <feOffset dx="10" dy="10" in="SourceAlpha" result="shadowOffsetOuter1"></feOffset>
            <feGaussianBlur stdDeviation="10" in="shadowOffsetOuter1" result="shadowBlurOuter1"></feGaussianBlur>
            <feComposite in="shadowBlurOuter1" in2="SourceAlpha" operator="out" result="shadowBlurOuter1"></feComposite>
            <feColorMatrix values="0 0 0 0 0.0588235294   0 0 0 0 0.0823529412   0 0 0 0 0.2  0 0 0 1 0" type="matrix" in="shadowBlurOuter1" result="shadowMatrixOuter1"></feColorMatrix>
            <feOffset dx="-10" dy="-10" in="SourceAlpha" result="shadowOffsetOuter2"></feOffset>
            <feGaussianBlur stdDeviation="10" in="shadowOffsetOuter2" result="shadowBlurOuter2"></feGaussianBlur>
            <feComposite in="shadowBlurOuter2" in2="SourceAlpha" operator="out" result="shadowBlurOuter2"></feComposite>
            <feColorMatrix values="0 0 0 0 0.0245166249   0 0 0 0 0.0658336004   0 0 0 0 0.272418478  0 0 0 1 0" type="matrix" in="shadowBlurOuter2" result="shadowMatrixOuter2"></feColorMatrix>
            <feMerge>
                <feMergeNode in="shadowMatrixOuter1"></feMergeNode>
                <feMergeNode in="shadowMatrixOuter2"></feMergeNode>
            </feMerge>
        </filter>
    </defs>
    <g id="Home" stroke="none" stroke-width="1" fill="none" fill-rule="evenodd">
        <g id="Home-page" transform="translate(-48.000000, -753.000000)">
            <g id="Group-4" transform="translate(78.000000, 783.000000)">
                <g id="Oval">
                    <use fill="black" fill-opacity="1" filter="url(#filter-2)" xlink:href="#path-1"></use>
                    <circle stroke="#061145" stroke-width="1" stroke-linejoin="square" fill="#181E47" fill-rule="evenodd" cx="50" cy="50" r="49.5"></circle>
                </g>
                <g id="shopping_basket-24px" transform="translate(14.285714, 14.285714)">
                    <polygon id="Path" points="0 0 71.4285714 0 71.4285714 71.4285714 0 71.4285714"></polygon>
                    <path d="M65.4761905,26.7857143 L51.2202381,26.7857143 L38.1547619,7.23214286 C36.9642857,5.47619048 34.375,5.47619048 33.2142857,7.23214286 L20.1488095,26.7857143 L5.95238095,26.7857143 C4.31547619,26.7857143 2.97619048,28.125 2.97619048,29.7619048 C2.97619048,30.0297619 3.00595238,30.297619 3.0952381,30.5654762 L10.6547619,58.1547619 C11.3392857,60.6547619 13.6309524,62.5 16.3690476,62.5 L55.0595238,62.5 C57.797619,62.5 60.0892857,60.6547619 60.8035714,58.1547619 L68.3630952,30.5654762 L68.452381,29.7619048 C68.452381,28.125 67.1130952,26.7857143 65.4761905,26.7857143 Z M35.6845238,14.2559524 L44.047619,26.7857143 L27.3214286,26.7857143 L35.6845238,14.2559524 Z M35.7142857,50.5952381 C32.4404762,50.5952381 29.7619048,47.9166667 29.7619048,44.6428571 C29.7619048,41.3690476 32.4404762,38.6904762 35.7142857,38.6904762 C38.9880952,38.6904762 41.6666667,41.3690476 41.6666667,44.6428571 C41.6666667,47.9166667 38.9880952,50.5952381 35.7142857,50.5952381 Z" id="Shape" fill="#3069F4" fill-rule="nonzero"></path>
                </g>
            </g>
        </g>
    </g>
</svg>