<?xml version="1.0" encoding="UTF-8"?>
<svg width="160px" height="160px" viewBox="0 0 160 160" version="1.1" xmlns="http://www.w3.org/2000/svg" xmlns:xlink="http://www.w3.org/1999/xlink">
    <title>B School Profile</title>
    <defs>
        <circle id="path-1" cx="50" cy="50" r="50"></circle>
        <filter x="-45.0%" y="-45.0%" width="190.0%" height="190.0%" filterUnits="objectBoundingBox" id="filter-2">
            <feOffset dx="10" dy="10" in="SourceAlpha" result="shadowOffsetOuter1"></feOffset>
            <feGaussianBlur stdDeviation="10" in="shadowOffsetOuter1" result="shadowBlurOuter1"></feGaussianBlur>
            <feComposite in="shadowBlurOuter1" in2="SourceAlpha" operator="out" result="shadowBlurOuter1"></feComposite>
            <feColorMatrix values="0 0 0 0 0.0588235294   0 0 0 0 0.0823529412   0 0 0 0 0.2  0 0 0 1 0" type="matrix" in="shadowBlurOuter1" result="shadowMatrixOuter1"></feColorMatrix>
            <feOffset dx="-10" dy="-10" in="SourceAlpha" result="shadowOffsetOuter2"></feOffset>
            <feGaussianBlur stdDeviation="10" in="shadowOffsetOuter2" result="shadowBlurOuter2"></feGaussianBlur>
            <feComposite in="shadowBlurOuter2" in2="SourceAlpha" operator="out" result="shadowBlurOuter2"></feComposite>
            <feColorMatrix values="0 0 0 0 0.0245166249   0 0 0 0 0.0658336004   0 0 0 0 0.272418478  0 0 0 1 0" type="matrix" in="shadowBlurOuter2" result="shadowMatrixOuter2"></feColorMatrix>
            <feMerge>
                <feMergeNode in="shadowMatrixOuter1"></feMergeNode>
                <feMergeNode in="shadowMatrixOuter2"></feMergeNode>
            </feMerge>
        </filter>
    </defs>
    <g id="Home" stroke="none" stroke-width="1" fill="none" fill-rule="evenodd">
        <g id="Home-page" transform="translate(-48.000000, -363.000000)">
            <g id="Group-3" transform="translate(78.000000, 393.000000)">
                <g id="Oval">
                    <use fill="black" fill-opacity="1" filter="url(#filter-2)" xlink:href="#path-1"></use>
                    <circle stroke="#061145" stroke-width="1" stroke-linejoin="square" fill="#181E47" fill-rule="evenodd" cx="50" cy="50" r="49.5"></circle>
                </g>
                <g id="account_balance-black-18dp" transform="translate(14.285714, 17.460317)">
                    <polygon id="Path" points="0 -1.52259158e-14 71.4285714 -1.52259158e-14 71.4285714 65.641953 0 65.641953"></polygon>
                    <path d="M12.987013,32.3114182 L12.987013,43.3938259 C12.987013,45.6934255 15.0414863,47.5497288 17.5865801,47.5497288 C20.1316739,47.5497288 22.1861472,45.6934255 22.1861472,43.3938259 L22.1861472,32.3114182 C22.1861472,30.0118187 20.1316739,28.1555154 17.5865801,28.1555154 C15.0414863,28.1555154 12.987013,30.0118187 12.987013,32.3114182 Z M31.3852814,32.3114182 L31.3852814,43.3938259 C31.3852814,45.6934255 33.4397547,47.5497288 35.9848485,47.5497288 C38.5299423,47.5497288 40.5844156,45.6934255 40.5844156,43.3938259 L40.5844156,32.3114182 C40.5844156,30.0118187 38.5299423,28.1555154 35.9848485,28.1555154 C33.4397547,28.1555154 31.3852814,30.0118187 31.3852814,32.3114182 Z M11.5629984,61.4737794 L59.865573,61.4737794 C62.3712691,61.4737794 64.3939394,59.5857444 64.3939394,57.2468354 C64.3939394,54.9079265 62.3712691,53.0198915 59.865573,53.0198915 L11.5629984,53.0198915 C9.05730235,53.0198915 7.03463203,54.9079265 7.03463203,57.2468354 C7.03463203,59.5857444 9.05730235,61.4737794 11.5629984,61.4737794 Z M49.2424242,32.3114182 L49.2424242,43.3938259 C49.2424242,45.6934255 51.2968975,47.5497288 53.8419913,47.5497288 C56.3870851,47.5497288 58.4415584,45.6934255 58.4415584,43.3938259 L58.4415584,32.3114182 C58.4415584,30.0118187 56.3870851,28.1555154 53.8419913,28.1555154 C51.2968975,28.1555154 49.2424242,30.0118187 49.2424242,32.3114182 Z M32.9066986,4.92018457 L9.05730235,16.2724271 C7.81954887,16.8454971 7.03463203,18.018926 7.03463203,19.274222 C7.03463203,21.1571661 8.72522215,22.6853526 10.8082707,22.6853526 L60.6504899,22.6853526 C62.7033493,22.6853526 64.3939394,21.1571661 64.3939394,19.274222 C64.3939394,18.018926 63.6090226,16.8454971 62.3712691,16.2724271 L38.5218729,4.92018457 C36.7709045,4.07422419 34.6576669,4.07422419 32.9066986,4.92018457 Z" id="Shape" fill="#3069F4" fill-rule="nonzero"></path>
                </g>
            </g>
        </g>
    </g>
</svg>