<?xml version="1.0" encoding="UTF-8"?>
<svg width="160px" height="160px" viewBox="0 0 160 160" version="1.1" xmlns="http://www.w3.org/2000/svg" xmlns:xlink="http://www.w3.org/1999/xlink">
    <title>B comunication</title>
    <defs>
        <circle id="path-1" cx="50" cy="50" r="50"></circle>
        <filter x="-45.0%" y="-45.0%" width="190.0%" height="190.0%" filterUnits="objectBoundingBox" id="filter-2">
            <feOffset dx="10" dy="10" in="SourceAlpha" result="shadowOffsetOuter1"></feOffset>
            <feGaussianBlur stdDeviation="10" in="shadowOffsetOuter1" result="shadowBlurOuter1"></feGaussianBlur>
            <feComposite in="shadowBlurOuter1" in2="SourceAlpha" operator="out" result="shadowBlurOuter1"></feComposite>
            <feColorMatrix values="0 0 0 0 0.0588235294   0 0 0 0 0.0823529412   0 0 0 0 0.2  0 0 0 1 0" type="matrix" in="shadowBlurOuter1" result="shadowMatrixOuter1"></feColorMatrix>
            <feOffset dx="-10" dy="-10" in="SourceAlpha" result="shadowOffsetOuter2"></feOffset>
            <feGaussianBlur stdDeviation="10" in="shadowOffsetOuter2" result="shadowBlurOuter2"></feGaussianBlur>
            <feComposite in="shadowBlurOuter2" in2="SourceAlpha" operator="out" result="shadowBlurOuter2"></feComposite>
            <feColorMatrix values="0 0 0 0 0.0245166249   0 0 0 0 0.0658336004   0 0 0 0 0.272418478  0 0 0 1 0" type="matrix" in="shadowBlurOuter2" result="shadowMatrixOuter2"></feColorMatrix>
            <feMerge>
                <feMergeNode in="shadowMatrixOuter1"></feMergeNode>
                <feMergeNode in="shadowMatrixOuter2"></feMergeNode>
            </feMerge>
        </filter>
    </defs>
    <g id="Home" stroke="none" stroke-width="1" fill="none" fill-rule="evenodd">
        <g id="Home-page" transform="translate(-48.000000, -623.000000)">
            <g id="Group-2" transform="translate(78.000000, 653.000000)">
                <g id="Oval">
                    <use fill="black" fill-opacity="1" filter="url(#filter-2)" xlink:href="#path-1"></use>
                    <circle stroke="#061145" stroke-width="1" stroke-linejoin="square" fill="#181E47" fill-rule="evenodd" cx="50" cy="50" r="49.5"></circle>
                </g>
                <g id="email-24px" transform="translate(14.285714, 14.285714)">
                    <polygon id="Path" points="0 0 71.4285714 0 71.4285714 71.4285714 0 71.4285714"></polygon>
                    <path d="M59.5238095,11.9047619 L11.9047619,11.9047619 C8.63095238,11.9047619 5.98214286,14.5833333 5.98214286,17.8571429 L5.95238095,53.5714286 C5.95238095,56.8452381 8.63095238,59.5238095 11.9047619,59.5238095 L59.5238095,59.5238095 C62.797619,59.5238095 65.4761905,56.8452381 65.4761905,53.5714286 L65.4761905,17.8571429 C65.4761905,14.5833333 62.797619,11.9047619 59.5238095,11.9047619 Z M58.3333333,24.5535714 L37.2916667,37.7083333 C36.3392857,38.3035714 35.0892857,38.3035714 34.1369048,37.7083333 L13.0952381,24.5535714 C12.3511905,24.077381 11.9047619,23.2738095 11.9047619,22.4107143 C11.9047619,20.4166667 14.077381,19.2261905 15.7738095,20.2678571 L35.7142857,32.7380952 L55.6547619,20.2678571 C57.3511905,19.2261905 59.5238095,20.4166667 59.5238095,22.4107143 C59.5238095,23.2738095 59.077381,24.077381 58.3333333,24.5535714 Z" id="Shape" fill="#3069F4" fill-rule="nonzero"></path>
                </g>
            </g>
        </g>
    </g>
</svg>