<svg xmlns="http://www.w3.org/2000/svg" xmlns:xlink="http://www.w3.org/1999/xlink" viewBox="0 0 1440.24 1024.8"><defs><linearGradient id="Degradado_sin_nombre_22" x1="160.73" y1="201" x2="1182.07" y2="201" gradientTransform="translate(921.24 -157.27) rotate(90)" gradientUnits="userSpaceOnUse"><stop offset="0.39" stop-color="#2b5fd6" stop-opacity="0"/><stop offset="0.67" stop-color="#2a5ed5" stop-opacity="0.01"/><stop offset="0.77" stop-color="#275ad2" stop-opacity="0.05"/><stop offset="0.85" stop-color="#2153cb" stop-opacity="0.12"/><stop offset="0.91" stop-color="#1849c3" stop-opacity="0.22"/><stop offset="0.96" stop-color="#0d3cb7" stop-opacity="0.35"/><stop offset="1" stop-color="#002caa" stop-opacity="0.5"/></linearGradient><linearGradient id="Degradado_sin_nombre_9" x1="101.28" y1="1299.38" x2="1916.48" y2="-1008.8" gradientUnits="userSpaceOnUse"><stop offset="0.2" stop-color="#181e47"/><stop offset="0.4" stop-color="#181e67"/><stop offset="0.57" stop-color="#181e7b"/><stop offset="0.69" stop-color="#181e82"/></linearGradient><clipPath id="clip-path" transform="translate(0.24 0.47)"/></defs><title>background-lines</title><g id="Capa_1" data-name="Capa 1"><rect x="0.24" y="3.47" width="1440" height="1021.33" style="fill:#181e47"/><path d="M681.58,1023.34S691.73,926.2,745,923.5s76.09-18.89,86.24-51.28,48.19-99.84,131.9-89.05,121.75-2.7,152.19-40.48,48.19-99.84,111.6-94.45,98.93,21.59,126.83-10.79,40.58-99.85,86.24-99.85v486.73Z" transform="translate(0.24 0.47)" style="fill:#fff;opacity:0.1"/><path d="M1377.17,707.52c-38.53,62-62.5,43-123.39,43s-117.46,2.36-169.65,54.8-78.9,86.88-149.39,89.66c-144.64,5.71-199.92,125.67-210.83,129.34H1440V641.14C1418.4,654.92,1396.61,676.27,1377.17,707.52Z" transform="translate(0.24 0.47)" style="fill:#142b75;opacity:0.4"/><rect x="0.24" y="3.47" width="1440" height="1021.33" style="fill:url(#Degradado_sin_nombre_22)"/><path d="M1004.69,916.18c-23.2-9.83-92.79,24.58-145-29.5s-52.19-59-165.26-34.41S558.17,739.21,436.4,739.21s-101.48,19.66-176.87-73.74-111-16-168.95-30.76-80.4-72.48-80.4-72.48l-8.69-4.92C1,556.53.49,555.78,0,555v469.3H1056.87S1027.88,926,1004.69,916.18Z" transform="translate(0.24 0.47)" style="fill:#142b75;opacity:0.13"/><path d="M963.06,955.25c-23.75-2.91-51.16,16.64-103.35-17.29s-52.19-37-165.26-21.59-136.28-71-258.05-71-101.48,12.34-176.87-46.27-85.25-18.72-156.27-7.92c-58,8.82-93.08-56.86-93.08-56.86l-8.69-3.08c-.5-.49-1-.93-1.49-1.4v294.44H1005.19S1012.85,961.37,963.06,955.25Z" transform="translate(0.24 0.47)" style="fill:#142b75;opacity:0.4"/></g><g id="Capa_2" data-name="Capa 2"><rect y="0.47" width="1440.24" height="1024" style="fill:url(#Degradado_sin_nombre_9)"/><g style="clip-path:url(#clip-path)"><path d="M0,4.88,318.28,344.31c20.62,22,20.63,57.67,0,79.68a50.5,50.5,0,0,1-74.68,0L0,164.21" transform="translate(0.24 0.47)" style="fill:#3555db"/><path d="M0,644.68,169.66,825.62c20.63,22,20.64,57.67,0,79.68a50.48,50.48,0,0,1-74.68,0L-.24,803.75" transform="translate(0.24 0.47)" style="fill:#3555db"/><line x1="149.27" y1="497.42" x2="193.64" y2="544.74" style="fill:#3555db"/><path d="M193.4,600.62a51,51,0,0,1-37.33-16.49L111.7,536.81c-20.63-22-20.64-57.68,0-79.69s54-22,74.68,0l44.37,47.32c20.63,22,20.64,57.68,0,79.69A51,51,0,0,1,193.4,600.62Z" transform="translate(0.24 0.47)" style="fill:#3555db"/><path d="M0,258.36l92.9,99.07c20.62,22,20.63,57.67,0,79.68a50.5,50.5,0,0,1-74.68,0L-.24,417.43" transform="translate(0.24 0.47)" style="fill:#3555db"/><line x1="463.99" y1="397.75" x2="488.52" y2="423.92" style="fill:#3555db"/><path d="M488.28,430.62a6.48,6.48,0,0,1-4.75-2.1L459,402.35a7.52,7.52,0,0,1,0-10.14,6.43,6.43,0,0,1,9.51,0L493,418.38a7.52,7.52,0,0,1,0,10.14A6.5,6.5,0,0,1,488.28,430.62Z" transform="translate(0.24 0.47)" style="fill:#3555db"/><path d="M100.29-.47,430.42,351.6a7.52,7.52,0,0,1,0,10.14,6.42,6.42,0,0,1-9.5,0L81.28-.47" transform="translate(0.24 0.47)" style="fill:#3555db"/><path d="M1440,868.11,1326.24,746.79c-20.63-22-20.64-57.68,0-79.69s54.06-22,74.68,0l39.1,41.7" transform="translate(0.24 0.47)" style="fill:#3555db"/><path d="M1139.9,1023.94l-71.38-76.12c-20.63-22-20.63-57.68,0-79.69s54.06-22,74.69,0L1289.36,1024" transform="translate(0.24 0.47)" style="fill:#3555db"/><path d="M1440,599.49,1286.13,435.4c-20.62-22-20.63-57.68,0-79.69s54.05-22,74.68,0l79.2,84.47" transform="translate(0.24 0.47)" style="fill:#3555db"/><line x1="1148.49" y1="666.22" x2="1123.96" y2="640.05" style="fill:#3555db"/><path d="M1148.25,672.92a6.48,6.48,0,0,1-4.75-2.1L1119,644.65a7.52,7.52,0,0,1,0-10.14,6.43,6.43,0,0,1,9.51,0L1153,660.68a7.52,7.52,0,0,1,0,10.14A6.5,6.5,0,0,1,1148.25,672.92Z" transform="translate(0.24 0.47)" style="fill:#3555db"/><path d="M1440,987,1181.58,711.44a7.54,7.54,0,0,1,0-10.15,6.43,6.43,0,0,1,9.51,0L1440,966.75" transform="translate(0.24 0.47)" style="fill:#3555db"/></g></g></svg>